<svg xmlns="http://www.w3.org/2000/svg" xmlns:xlink="http://www.w3.org/1999/xlink" width="600" height="400" viewBox="0 0 2400 1600">
<defs>
  <clipPath id="clip660">
    <rect x="0" y="0" width="2400" height="1600"></rect>
  </clipPath>
</defs>
<path clip-path="url(#clip660)" d="M0 1600 L2400 1600 L2400 0 L0 0  Z" fill="#ffffff" fill-rule="evenodd" fill-opacity="1"></path>
<defs>
  <clipPath id="clip661">
    <rect x="480" y="0" width="1681" height="1600"></rect>
  </clipPath>
</defs>
<path clip-path="url(#clip660)" d="M247.459 1423.18 L2352.76 1423.18 L2352.76 123.472 L247.459 123.472  Z" fill="#ffffff" fill-rule="evenodd" fill-opacity="1"></path>
<defs>
  <clipPath id="clip662">
    <rect x="247" y="123" width="2106" height="1301"></rect>
  </clipPath>
</defs>
<polyline clip-path="url(#clip662)" style="stroke:#000000; stroke-linecap:round; stroke-linejoin:round; stroke-width:2; stroke-opacity:0.1; fill:none" points="307.043,1423.18 307.043,123.472 "></polyline>
<polyline clip-path="url(#clip662)" style="stroke:#000000; stroke-linecap:round; stroke-linejoin:round; stroke-width:2; stroke-opacity:0.1; fill:none" points="803.575,1423.18 803.575,123.472 "></polyline>
<polyline clip-path="url(#clip662)" style="stroke:#000000; stroke-linecap:round; stroke-linejoin:round; stroke-width:2; stroke-opacity:0.1; fill:none" points="1300.11,1423.18 1300.11,123.472 "></polyline>
<polyline clip-path="url(#clip662)" style="stroke:#000000; stroke-linecap:round; stroke-linejoin:round; stroke-width:2; stroke-opacity:0.1; fill:none" points="1796.64,1423.18 1796.64,123.472 "></polyline>
<polyline clip-path="url(#clip662)" style="stroke:#000000; stroke-linecap:round; stroke-linejoin:round; stroke-width:2; stroke-opacity:0.1; fill:none" points="2293.17,1423.18 2293.17,123.472 "></polyline>
<polyline clip-path="url(#clip660)" style="stroke:#000000; stroke-linecap:round; stroke-linejoin:round; stroke-width:4; stroke-opacity:1; fill:none" points="247.459,1423.18 2352.76,1423.18 "></polyline>
<polyline clip-path="url(#clip660)" style="stroke:#000000; stroke-linecap:round; stroke-linejoin:round; stroke-width:4; stroke-opacity:1; fill:none" points="307.043,1423.18 307.043,1404.28 "></polyline>
<polyline clip-path="url(#clip660)" style="stroke:#000000; stroke-linecap:round; stroke-linejoin:round; stroke-width:4; stroke-opacity:1; fill:none" points="803.575,1423.18 803.575,1404.28 "></polyline>
<polyline clip-path="url(#clip660)" style="stroke:#000000; stroke-linecap:round; stroke-linejoin:round; stroke-width:4; stroke-opacity:1; fill:none" points="1300.11,1423.18 1300.11,1404.28 "></polyline>
<polyline clip-path="url(#clip660)" style="stroke:#000000; stroke-linecap:round; stroke-linejoin:round; stroke-width:4; stroke-opacity:1; fill:none" points="1796.64,1423.18 1796.64,1404.28 "></polyline>
<polyline clip-path="url(#clip660)" style="stroke:#000000; stroke-linecap:round; stroke-linejoin:round; stroke-width:4; stroke-opacity:1; fill:none" points="2293.17,1423.18 2293.17,1404.28 "></polyline>
<path clip-path="url(#clip660)" d="M261.105 1468.75 L290.781 1468.75 L290.781 1472.69 L261.105 1472.69 L261.105 1468.75 Z" fill="#000000" fill-rule="nonzero" fill-opacity="1"></path><path clip-path="url(#clip660)" d="M301.684 1481.64 L309.323 1481.64 L309.323 1455.28 L301.013 1456.95 L301.013 1452.69 L309.276 1451.02 L313.952 1451.02 L313.952 1481.64 L321.591 1481.64 L321.591 1485.58 L301.684 1485.58 L301.684 1481.64 Z" fill="#000000" fill-rule="nonzero" fill-opacity="1"></path><path clip-path="url(#clip660)" d="M341.035 1454.1 Q337.424 1454.1 335.596 1457.66 Q333.79 1461.2 333.79 1468.33 Q333.79 1475.44 335.596 1479.01 Q337.424 1482.55 341.035 1482.55 Q344.67 1482.55 346.475 1479.01 Q348.304 1475.44 348.304 1468.33 Q348.304 1461.2 346.475 1457.66 Q344.67 1454.1 341.035 1454.1 M341.035 1450.39 Q346.846 1450.39 349.901 1455 Q352.98 1459.58 352.98 1468.33 Q352.98 1477.06 349.901 1481.67 Q346.846 1486.25 341.035 1486.25 Q335.225 1486.25 332.147 1481.67 Q329.091 1477.06 329.091 1468.33 Q329.091 1459.58 332.147 1455 Q335.225 1450.39 341.035 1450.39 Z" fill="#000000" fill-rule="nonzero" fill-opacity="1"></path><path clip-path="url(#clip660)" d="M773.216 1468.75 L802.892 1468.75 L802.892 1472.69 L773.216 1472.69 L773.216 1468.75 Z" fill="#000000" fill-rule="nonzero" fill-opacity="1"></path><path clip-path="url(#clip660)" d="M813.031 1451.02 L831.387 1451.02 L831.387 1454.96 L817.313 1454.96 L817.313 1463.43 Q818.332 1463.08 819.35 1462.92 Q820.369 1462.73 821.387 1462.73 Q827.174 1462.73 830.554 1465.9 Q833.934 1469.08 833.934 1474.49 Q833.934 1480.07 830.461 1483.17 Q826.989 1486.25 820.67 1486.25 Q818.494 1486.25 816.225 1485.88 Q813.98 1485.51 811.573 1484.77 L811.573 1480.07 Q813.656 1481.2 815.878 1481.76 Q818.1 1482.32 820.577 1482.32 Q824.582 1482.32 826.92 1480.21 Q829.258 1478.1 829.258 1474.49 Q829.258 1470.88 826.92 1468.77 Q824.582 1466.67 820.577 1466.67 Q818.702 1466.67 816.827 1467.08 Q814.975 1467.5 813.031 1468.38 L813.031 1451.02 Z" fill="#000000" fill-rule="nonzero" fill-opacity="1"></path><path clip-path="url(#clip660)" d="M1300.11 1454.1 Q1296.5 1454.1 1294.67 1457.66 Q1292.86 1461.2 1292.86 1468.33 Q1292.86 1475.44 1294.67 1479.01 Q1296.5 1482.55 1300.11 1482.55 Q1303.74 1482.55 1305.55 1479.01 Q1307.38 1475.44 1307.38 1468.33 Q1307.38 1461.2 1305.55 1457.66 Q1303.74 1454.1 1300.11 1454.1 M1300.11 1450.39 Q1305.92 1450.39 1308.97 1455 Q1312.05 1459.58 1312.05 1468.33 Q1312.05 1477.06 1308.97 1481.67 Q1305.92 1486.25 1300.11 1486.25 Q1294.3 1486.25 1291.22 1481.67 Q1288.16 1477.06 1288.16 1468.33 Q1288.16 1459.58 1291.22 1455 Q1294.3 1450.39 1300.11 1450.39 Z" fill="#000000" fill-rule="nonzero" fill-opacity="1"></path><path clip-path="url(#clip660)" d="M1786.92 1451.02 L1805.27 1451.02 L1805.27 1454.96 L1791.2 1454.96 L1791.2 1463.43 Q1792.22 1463.08 1793.24 1462.92 Q1794.26 1462.73 1795.27 1462.73 Q1801.06 1462.73 1804.44 1465.9 Q1807.82 1469.08 1807.82 1474.49 Q1807.82 1480.07 1804.35 1483.17 Q1800.88 1486.25 1794.56 1486.25 Q1792.38 1486.25 1790.11 1485.88 Q1787.87 1485.51 1785.46 1484.77 L1785.46 1480.07 Q1787.54 1481.2 1789.76 1481.76 Q1791.99 1482.32 1794.46 1482.32 Q1798.47 1482.32 1800.81 1480.21 Q1803.14 1478.1 1803.14 1474.49 Q1803.14 1470.88 1800.81 1468.77 Q1798.47 1466.67 1794.46 1466.67 Q1792.59 1466.67 1790.71 1467.08 Q1788.86 1467.5 1786.92 1468.38 L1786.92 1451.02 Z" fill="#000000" fill-rule="nonzero" fill-opacity="1"></path><path clip-path="url(#clip660)" d="M2267.86 1481.64 L2275.5 1481.64 L2275.5 1455.28 L2267.19 1456.95 L2267.19 1452.69 L2275.45 1451.02 L2280.13 1451.02 L2280.13 1481.64 L2287.77 1481.64 L2287.77 1485.58 L2267.86 1485.58 L2267.86 1481.64 Z" fill="#000000" fill-rule="nonzero" fill-opacity="1"></path><path clip-path="url(#clip660)" d="M2307.21 1454.1 Q2303.6 1454.1 2301.77 1457.66 Q2299.97 1461.2 2299.97 1468.33 Q2299.97 1475.44 2301.77 1479.01 Q2303.6 1482.55 2307.21 1482.55 Q2310.85 1482.55 2312.65 1479.01 Q2314.48 1475.44 2314.48 1468.33 Q2314.48 1461.2 2312.65 1457.66 Q2310.85 1454.1 2307.21 1454.1 M2307.21 1450.39 Q2313.02 1450.39 2316.08 1455 Q2319.16 1459.58 2319.16 1468.33 Q2319.16 1477.06 2316.08 1481.67 Q2313.02 1486.25 2307.21 1486.25 Q2301.4 1486.25 2298.32 1481.67 Q2295.27 1477.06 2295.27 1468.33 Q2295.27 1459.58 2298.32 1455 Q2301.4 1450.39 2307.21 1450.39 Z" fill="#000000" fill-rule="nonzero" fill-opacity="1"></path><path clip-path="url(#clip660)" d="M1185.6 1525.81 L1185.6 1543.66 L1193.69 1543.66 Q1198.18 1543.66 1200.63 1541.34 Q1203.08 1539.02 1203.08 1534.72 Q1203.08 1530.45 1200.63 1528.13 Q1198.18 1525.81 1193.69 1525.81 L1185.6 1525.81 M1179.17 1520.52 L1193.69 1520.52 Q1201.68 1520.52 1205.75 1524.15 Q1209.86 1527.75 1209.86 1534.72 Q1209.86 1541.75 1205.75 1545.35 Q1201.68 1548.95 1193.69 1548.95 L1185.6 1548.95 L1185.6 1568.04 L1179.17 1568.04 L1179.17 1520.52 Z" fill="#000000" fill-rule="nonzero" fill-opacity="1"></path><path clip-path="url(#clip660)" d="M1229.72 1536.5 Q1225.01 1536.5 1222.27 1540.19 Q1219.53 1543.85 1219.53 1550.25 Q1219.53 1556.65 1222.24 1560.34 Q1224.98 1564 1229.72 1564 Q1234.4 1564 1237.13 1560.31 Q1239.87 1556.62 1239.87 1550.25 Q1239.87 1543.92 1237.13 1540.23 Q1234.4 1536.5 1229.72 1536.5 M1229.72 1531.54 Q1237.36 1531.54 1241.72 1536.5 Q1246.08 1541.47 1246.08 1550.25 Q1246.08 1559 1241.72 1564 Q1237.36 1568.97 1229.72 1568.97 Q1222.05 1568.97 1217.69 1564 Q1213.36 1559 1213.36 1550.25 Q1213.36 1541.47 1217.69 1536.5 Q1222.05 1531.54 1229.72 1531.54 Z" fill="#000000" fill-rule="nonzero" fill-opacity="1"></path><path clip-path="url(#clip660)" d="M1278.51 1533.45 L1278.51 1538.98 Q1276.03 1537.71 1273.36 1537.07 Q1270.68 1536.44 1267.82 1536.44 Q1263.46 1536.44 1261.26 1537.77 Q1259.1 1539.11 1259.1 1541.79 Q1259.1 1543.82 1260.66 1545 Q1262.22 1546.15 1266.93 1547.2 L1268.93 1547.64 Q1275.17 1548.98 1277.78 1551.43 Q1280.42 1553.85 1280.42 1558.21 Q1280.42 1563.17 1276.47 1566.07 Q1272.56 1568.97 1265.68 1568.97 Q1262.82 1568.97 1259.7 1568.39 Q1256.61 1567.85 1253.18 1566.74 L1253.18 1560.69 Q1256.42 1562.38 1259.57 1563.24 Q1262.72 1564.07 1265.81 1564.07 Q1269.95 1564.07 1272.18 1562.66 Q1274.41 1561.23 1274.41 1558.65 Q1274.41 1556.27 1272.78 1554.99 Q1271.19 1553.72 1265.75 1552.54 L1263.71 1552.07 Q1258.27 1550.92 1255.85 1548.56 Q1253.43 1546.18 1253.43 1542.04 Q1253.43 1537.01 1257 1534.27 Q1260.56 1531.54 1267.12 1531.54 Q1270.36 1531.54 1273.23 1532.01 Q1276.09 1532.49 1278.51 1533.45 Z" fill="#000000" fill-rule="nonzero" fill-opacity="1"></path><path clip-path="url(#clip660)" d="M1289.75 1532.4 L1295.6 1532.4 L1295.6 1568.04 L1289.75 1568.04 L1289.75 1532.4 M1289.75 1518.52 L1295.6 1518.52 L1295.6 1525.93 L1289.75 1525.93 L1289.75 1518.52 Z" fill="#000000" fill-rule="nonzero" fill-opacity="1"></path><path clip-path="url(#clip660)" d="M1313.65 1522.27 L1313.65 1532.4 L1325.71 1532.4 L1325.71 1536.95 L1313.65 1536.95 L1313.65 1556.3 Q1313.65 1560.66 1314.83 1561.9 Q1316.04 1563.14 1319.7 1563.14 L1325.71 1563.14 L1325.71 1568.04 L1319.7 1568.04 Q1312.92 1568.04 1310.34 1565.53 Q1307.76 1562.98 1307.76 1556.3 L1307.76 1536.95 L1303.47 1536.95 L1303.47 1532.4 L1307.76 1532.4 L1307.76 1522.27 L1313.65 1522.27 Z" fill="#000000" fill-rule="nonzero" fill-opacity="1"></path><path clip-path="url(#clip660)" d="M1333.42 1532.4 L1339.27 1532.4 L1339.27 1568.04 L1333.42 1568.04 L1333.42 1532.4 M1333.42 1518.52 L1339.27 1518.52 L1339.27 1525.93 L1333.42 1525.93 L1333.42 1518.52 Z" fill="#000000" fill-rule="nonzero" fill-opacity="1"></path><path clip-path="url(#clip660)" d="M1365.34 1536.5 Q1360.63 1536.5 1357.89 1540.19 Q1355.15 1543.85 1355.15 1550.25 Q1355.15 1556.65 1357.86 1560.34 Q1360.6 1564 1365.34 1564 Q1370.02 1564 1372.76 1560.31 Q1375.49 1556.62 1375.49 1550.25 Q1375.49 1543.92 1372.76 1540.23 Q1370.02 1536.5 1365.34 1536.5 M1365.34 1531.54 Q1372.98 1531.54 1377.34 1536.5 Q1381.7 1541.47 1381.7 1550.25 Q1381.7 1559 1377.34 1564 Q1372.98 1568.97 1365.34 1568.97 Q1357.67 1568.97 1353.31 1564 Q1348.98 1559 1348.98 1550.25 Q1348.98 1541.47 1353.31 1536.5 Q1357.67 1531.54 1365.34 1531.54 Z" fill="#000000" fill-rule="nonzero" fill-opacity="1"></path><path clip-path="url(#clip660)" d="M1421.04 1546.53 L1421.04 1568.04 L1415.18 1568.04 L1415.18 1546.72 Q1415.18 1541.66 1413.21 1539.14 Q1411.24 1536.63 1407.29 1536.63 Q1402.55 1536.63 1399.81 1539.65 Q1397.07 1542.68 1397.07 1547.9 L1397.07 1568.04 L1391.18 1568.04 L1391.18 1532.4 L1397.07 1532.4 L1397.07 1537.93 Q1399.17 1534.72 1402.01 1533.13 Q1404.87 1531.54 1408.59 1531.54 Q1414.74 1531.54 1417.89 1535.36 Q1421.04 1539.14 1421.04 1546.53 Z" fill="#000000" fill-rule="nonzero" fill-opacity="1"></path><polyline clip-path="url(#clip662)" style="stroke:#000000; stroke-linecap:round; stroke-linejoin:round; stroke-width:2; stroke-opacity:0.1; fill:none" points="247.459,1386.4 2352.76,1386.4 "></polyline>
<polyline clip-path="url(#clip662)" style="stroke:#000000; stroke-linecap:round; stroke-linejoin:round; stroke-width:2; stroke-opacity:0.1; fill:none" points="247.459,1079.86 2352.76,1079.86 "></polyline>
<polyline clip-path="url(#clip662)" style="stroke:#000000; stroke-linecap:round; stroke-linejoin:round; stroke-width:2; stroke-opacity:0.1; fill:none" points="247.459,773.326 2352.76,773.326 "></polyline>
<polyline clip-path="url(#clip662)" style="stroke:#000000; stroke-linecap:round; stroke-linejoin:round; stroke-width:2; stroke-opacity:0.1; fill:none" points="247.459,466.791 2352.76,466.791 "></polyline>
<polyline clip-path="url(#clip662)" style="stroke:#000000; stroke-linecap:round; stroke-linejoin:round; stroke-width:2; stroke-opacity:0.1; fill:none" points="247.459,160.256 2352.76,160.256 "></polyline>
<polyline clip-path="url(#clip660)" style="stroke:#000000; stroke-linecap:round; stroke-linejoin:round; stroke-width:4; stroke-opacity:1; fill:none" points="247.459,1423.18 247.459,123.472 "></polyline>
<polyline clip-path="url(#clip660)" style="stroke:#000000; stroke-linecap:round; stroke-linejoin:round; stroke-width:4; stroke-opacity:1; fill:none" points="247.459,1386.4 266.356,1386.4 "></polyline>
<polyline clip-path="url(#clip660)" style="stroke:#000000; stroke-linecap:round; stroke-linejoin:round; stroke-width:4; stroke-opacity:1; fill:none" points="247.459,1079.86 266.356,1079.86 "></polyline>
<polyline clip-path="url(#clip660)" style="stroke:#000000; stroke-linecap:round; stroke-linejoin:round; stroke-width:4; stroke-opacity:1; fill:none" points="247.459,773.326 266.356,773.326 "></polyline>
<polyline clip-path="url(#clip660)" style="stroke:#000000; stroke-linecap:round; stroke-linejoin:round; stroke-width:4; stroke-opacity:1; fill:none" points="247.459,466.791 266.356,466.791 "></polyline>
<polyline clip-path="url(#clip660)" style="stroke:#000000; stroke-linecap:round; stroke-linejoin:round; stroke-width:4; stroke-opacity:1; fill:none" points="247.459,160.256 266.356,160.256 "></polyline>
<path clip-path="url(#clip660)" d="M154.283 1372.19 Q150.672 1372.19 148.843 1375.76 Q147.038 1379.3 147.038 1386.43 Q147.038 1393.54 148.843 1397.1 Q150.672 1400.64 154.283 1400.64 Q157.917 1400.64 159.723 1397.1 Q161.552 1393.54 161.552 1386.43 Q161.552 1379.3 159.723 1375.76 Q157.917 1372.19 154.283 1372.19 M154.283 1368.49 Q160.093 1368.49 163.149 1373.1 Q166.227 1377.68 166.227 1386.43 Q166.227 1395.16 163.149 1399.76 Q160.093 1404.35 154.283 1404.35 Q148.473 1404.35 145.394 1399.76 Q142.339 1395.16 142.339 1386.43 Q142.339 1377.68 145.394 1373.1 Q148.473 1368.49 154.283 1368.49 Z" fill="#000000" fill-rule="nonzero" fill-opacity="1"></path><path clip-path="url(#clip660)" d="M174.445 1397.8 L179.329 1397.8 L179.329 1403.68 L174.445 1403.68 L174.445 1397.8 Z" fill="#000000" fill-rule="nonzero" fill-opacity="1"></path><path clip-path="url(#clip660)" d="M199.514 1372.19 Q195.903 1372.19 194.075 1375.76 Q192.269 1379.3 192.269 1386.43 Q192.269 1393.54 194.075 1397.1 Q195.903 1400.64 199.514 1400.64 Q203.149 1400.64 204.954 1397.1 Q206.783 1393.54 206.783 1386.43 Q206.783 1379.3 204.954 1375.76 Q203.149 1372.19 199.514 1372.19 M199.514 1368.49 Q205.324 1368.49 208.38 1373.1 Q211.459 1377.68 211.459 1386.43 Q211.459 1395.16 208.38 1399.76 Q205.324 1404.35 199.514 1404.35 Q193.704 1404.35 190.625 1399.76 Q187.57 1395.16 187.57 1386.43 Q187.57 1377.68 190.625 1373.1 Q193.704 1368.49 199.514 1368.49 Z" fill="#000000" fill-rule="nonzero" fill-opacity="1"></path><path clip-path="url(#clip660)" d="M149.306 1093.21 L165.626 1093.21 L165.626 1097.14 L143.681 1097.14 L143.681 1093.21 Q146.343 1090.45 150.927 1085.82 Q155.533 1081.17 156.714 1079.83 Q158.959 1077.3 159.839 1075.57 Q160.741 1073.81 160.741 1072.12 Q160.741 1069.36 158.797 1067.63 Q156.876 1065.89 153.774 1065.89 Q151.575 1065.89 149.121 1066.65 Q146.691 1067.42 143.913 1068.97 L143.913 1064.25 Q146.737 1063.11 149.191 1062.53 Q151.644 1061.96 153.681 1061.96 Q159.052 1061.96 162.246 1064.64 Q165.44 1067.33 165.44 1071.82 Q165.44 1073.95 164.63 1075.87 Q163.843 1077.77 161.737 1080.36 Q161.158 1081.03 158.056 1084.25 Q154.954 1087.44 149.306 1093.21 Z" fill="#000000" fill-rule="nonzero" fill-opacity="1"></path><path clip-path="url(#clip660)" d="M175.44 1091.26 L180.325 1091.26 L180.325 1097.14 L175.44 1097.14 L175.44 1091.26 Z" fill="#000000" fill-rule="nonzero" fill-opacity="1"></path><path clip-path="url(#clip660)" d="M190.556 1062.58 L208.912 1062.58 L208.912 1066.52 L194.838 1066.52 L194.838 1074.99 Q195.857 1074.64 196.875 1074.48 Q197.894 1074.29 198.912 1074.29 Q204.699 1074.29 208.079 1077.47 Q211.459 1080.64 211.459 1086.05 Q211.459 1091.63 207.987 1094.73 Q204.514 1097.81 198.195 1097.81 Q196.019 1097.81 193.75 1097.44 Q191.505 1097.07 189.098 1096.33 L189.098 1091.63 Q191.181 1092.77 193.403 1093.32 Q195.625 1093.88 198.102 1093.88 Q202.107 1093.88 204.445 1091.77 Q206.783 1089.66 206.783 1086.05 Q206.783 1082.44 204.445 1080.34 Q202.107 1078.23 198.102 1078.23 Q196.227 1078.23 194.352 1078.65 Q192.5 1079.06 190.556 1079.94 L190.556 1062.58 Z" fill="#000000" fill-rule="nonzero" fill-opacity="1"></path><path clip-path="url(#clip660)" d="M144.329 756.046 L162.686 756.046 L162.686 759.981 L148.612 759.981 L148.612 768.453 Q149.63 768.106 150.649 767.944 Q151.667 767.759 152.686 767.759 Q158.473 767.759 161.852 770.93 Q165.232 774.101 165.232 779.518 Q165.232 785.097 161.76 788.199 Q158.288 791.277 151.968 791.277 Q149.792 791.277 147.524 790.907 Q145.279 790.537 142.871 789.796 L142.871 785.097 Q144.954 786.231 147.177 786.787 Q149.399 787.342 151.876 787.342 Q155.88 787.342 158.218 785.236 Q160.556 783.129 160.556 779.518 Q160.556 775.907 158.218 773.801 Q155.88 771.694 151.876 771.694 Q150.001 771.694 148.126 772.111 Q146.274 772.527 144.329 773.407 L144.329 756.046 Z" fill="#000000" fill-rule="nonzero" fill-opacity="1"></path><path clip-path="url(#clip660)" d="M174.445 784.726 L179.329 784.726 L179.329 790.606 L174.445 790.606 L174.445 784.726 Z" fill="#000000" fill-rule="nonzero" fill-opacity="1"></path><path clip-path="url(#clip660)" d="M199.514 759.125 Q195.903 759.125 194.075 762.689 Q192.269 766.231 192.269 773.361 Q192.269 780.467 194.075 784.032 Q195.903 787.574 199.514 787.574 Q203.149 787.574 204.954 784.032 Q206.783 780.467 206.783 773.361 Q206.783 766.231 204.954 762.689 Q203.149 759.125 199.514 759.125 M199.514 755.421 Q205.324 755.421 208.38 760.027 Q211.459 764.611 211.459 773.361 Q211.459 782.088 208.38 786.694 Q205.324 791.277 199.514 791.277 Q193.704 791.277 190.625 786.694 Q187.57 782.088 187.57 773.361 Q187.57 764.611 190.625 760.027 Q193.704 755.421 199.514 755.421 Z" fill="#000000" fill-rule="nonzero" fill-opacity="1"></path><path clip-path="url(#clip660)" d="M144.098 449.511 L166.32 449.511 L166.32 451.502 L153.774 484.071 L148.89 484.071 L160.695 453.446 L144.098 453.446 L144.098 449.511 Z" fill="#000000" fill-rule="nonzero" fill-opacity="1"></path><path clip-path="url(#clip660)" d="M175.44 478.192 L180.325 478.192 L180.325 484.071 L175.44 484.071 L175.44 478.192 Z" fill="#000000" fill-rule="nonzero" fill-opacity="1"></path><path clip-path="url(#clip660)" d="M190.556 449.511 L208.912 449.511 L208.912 453.446 L194.838 453.446 L194.838 461.918 Q195.857 461.571 196.875 461.409 Q197.894 461.224 198.912 461.224 Q204.699 461.224 208.079 464.395 Q211.459 467.567 211.459 472.983 Q211.459 478.562 207.987 481.664 Q204.514 484.742 198.195 484.742 Q196.019 484.742 193.75 484.372 Q191.505 484.002 189.098 483.261 L189.098 478.562 Q191.181 479.696 193.403 480.252 Q195.625 480.807 198.102 480.807 Q202.107 480.807 204.445 478.701 Q206.783 476.594 206.783 472.983 Q206.783 469.372 204.445 467.266 Q202.107 465.159 198.102 465.159 Q196.227 465.159 194.352 465.576 Q192.5 465.993 190.556 466.872 L190.556 449.511 Z" fill="#000000" fill-rule="nonzero" fill-opacity="1"></path><path clip-path="url(#clip660)" d="M114.931 173.601 L122.57 173.601 L122.57 147.236 L114.26 148.902 L114.26 144.643 L122.524 142.976 L127.2 142.976 L127.2 173.601 L134.839 173.601 L134.839 177.536 L114.931 177.536 L114.931 173.601 Z" fill="#000000" fill-rule="nonzero" fill-opacity="1"></path><path clip-path="url(#clip660)" d="M154.283 146.055 Q150.672 146.055 148.843 149.62 Q147.038 153.161 147.038 160.291 Q147.038 167.397 148.843 170.962 Q150.672 174.504 154.283 174.504 Q157.917 174.504 159.723 170.962 Q161.552 167.397 161.552 160.291 Q161.552 153.161 159.723 149.62 Q157.917 146.055 154.283 146.055 M154.283 142.351 Q160.093 142.351 163.149 146.958 Q166.227 151.541 166.227 160.291 Q166.227 169.018 163.149 173.624 Q160.093 178.208 154.283 178.208 Q148.473 178.208 145.394 173.624 Q142.339 169.018 142.339 160.291 Q142.339 151.541 145.394 146.958 Q148.473 142.351 154.283 142.351 Z" fill="#000000" fill-rule="nonzero" fill-opacity="1"></path><path clip-path="url(#clip660)" d="M174.445 171.657 L179.329 171.657 L179.329 177.536 L174.445 177.536 L174.445 171.657 Z" fill="#000000" fill-rule="nonzero" fill-opacity="1"></path><path clip-path="url(#clip660)" d="M199.514 146.055 Q195.903 146.055 194.075 149.62 Q192.269 153.161 192.269 160.291 Q192.269 167.397 194.075 170.962 Q195.903 174.504 199.514 174.504 Q203.149 174.504 204.954 170.962 Q206.783 167.397 206.783 160.291 Q206.783 153.161 204.954 149.62 Q203.149 146.055 199.514 146.055 M199.514 142.351 Q205.324 142.351 208.38 146.958 Q211.459 151.541 211.459 160.291 Q211.459 169.018 208.38 173.624 Q205.324 178.208 199.514 178.208 Q193.704 178.208 190.625 173.624 Q187.57 169.018 187.57 160.291 Q187.57 151.541 190.625 146.958 Q193.704 142.351 199.514 142.351 Z" fill="#000000" fill-rule="nonzero" fill-opacity="1"></path><path clip-path="url(#clip660)" d="M16.4842 851.449 L16.4842 811.25 L21.895 811.25 L21.895 828.119 L64.0042 828.119 L64.0042 834.58 L21.895 834.58 L21.895 851.449 L16.4842 851.449 Z" fill="#000000" fill-rule="nonzero" fill-opacity="1"></path><path clip-path="url(#clip660)" d="M28.3562 807.303 L28.3562 801.446 L64.0042 801.446 L64.0042 807.303 L28.3562 807.303 M14.479 807.303 L14.479 801.446 L21.895 801.446 L21.895 807.303 L14.479 807.303 Z" fill="#000000" fill-rule="nonzero" fill-opacity="1"></path><path clip-path="url(#clip660)" d="M35.1993 761.438 Q31.2526 759.242 29.3747 756.186 Q27.4968 753.131 27.4968 748.993 Q27.4968 743.423 31.4117 740.399 Q35.2948 737.376 42.4881 737.376 L64.0042 737.376 L64.0042 743.264 L42.679 743.264 Q37.5546 743.264 35.072 745.078 Q32.5894 746.892 32.5894 750.616 Q32.5894 755.168 35.6131 757.81 Q38.6368 760.451 43.8567 760.451 L64.0042 760.451 L64.0042 766.34 L42.679 766.34 Q37.5228 766.34 35.072 768.154 Q32.5894 769.968 32.5894 773.756 Q32.5894 778.243 35.6449 780.885 Q38.6686 783.527 43.8567 783.527 L64.0042 783.527 L64.0042 789.415 L28.3562 789.415 L28.3562 783.527 L33.8944 783.527 Q30.616 781.522 29.0564 778.721 Q27.4968 775.92 27.4968 772.069 Q27.4968 768.186 29.4702 765.48 Q31.4436 762.743 35.1993 761.438 Z" fill="#000000" fill-rule="nonzero" fill-opacity="1"></path><path clip-path="url(#clip660)" d="M44.7161 695.203 L47.5806 695.203 L47.5806 722.13 Q53.6281 721.748 56.8109 718.501 Q59.9619 715.223 59.9619 709.398 Q59.9619 706.025 59.1344 702.874 Q58.3069 699.691 56.6518 696.571 L62.1899 696.571 Q63.5267 699.723 64.227 703.033 Q64.9272 706.343 64.9272 709.748 Q64.9272 718.279 59.9619 723.276 Q54.9967 728.241 46.5303 728.241 Q37.7774 728.241 32.6531 723.53 Q27.4968 718.788 27.4968 710.767 Q27.4968 703.574 32.1438 699.404 Q36.7589 695.203 44.7161 695.203 M42.9973 701.059 Q38.1912 701.123 35.3266 703.765 Q32.4621 706.375 32.4621 710.703 Q32.4621 715.605 35.2312 718.565 Q38.0002 721.493 43.0292 721.939 L42.9973 701.059 Z" fill="#000000" fill-rule="nonzero" fill-opacity="1"></path><path clip-path="url(#clip660)" d="M817.948 14.0809 L817.948 22.0612 Q813.29 19.8332 809.158 18.7395 Q805.026 17.6457 801.178 17.6457 Q794.494 17.6457 790.848 20.2383 Q787.243 22.8309 787.243 27.611 Q787.243 31.6214 789.633 33.6873 Q792.063 35.7128 798.788 36.9686 L803.73 37.9813 Q812.885 39.7232 817.219 44.1387 Q821.594 48.5136 821.594 55.8863 Q821.594 64.6767 815.68 69.2137 Q809.806 73.7508 798.423 73.7508 Q794.129 73.7508 789.268 72.7785 Q784.447 71.8063 779.262 69.9024 L779.262 61.4765 Q784.245 64.2716 789.025 65.6895 Q793.805 67.1073 798.423 67.1073 Q805.431 67.1073 809.239 64.3527 Q813.047 61.598 813.047 56.4939 Q813.047 52.0379 810.292 49.5264 Q807.578 47.0148 801.34 45.759 L796.357 44.7868 Q787.202 42.9639 783.111 39.075 Q779.019 35.1862 779.019 28.2591 Q779.019 20.2383 784.65 15.6203 Q790.321 11.0023 800.246 11.0023 Q804.499 11.0023 808.915 11.7719 Q813.33 12.5416 817.948 14.0809 Z" fill="#000000" fill-rule="nonzero" fill-opacity="1"></path><path clip-path="url(#clip660)" d="M851.611 32.4315 Q845.616 32.4315 842.132 37.1306 Q838.649 41.7891 838.649 49.9314 Q838.649 58.0738 842.092 62.7728 Q845.576 67.4314 851.611 67.4314 Q857.566 67.4314 861.05 62.7323 Q864.534 58.0333 864.534 49.9314 Q864.534 41.8701 861.05 37.1711 Q857.566 32.4315 851.611 32.4315 M851.611 26.1121 Q861.334 26.1121 866.883 32.4315 Q872.433 38.7509 872.433 49.9314 Q872.433 61.0714 866.883 67.4314 Q861.334 73.7508 851.611 73.7508 Q841.849 73.7508 836.299 67.4314 Q830.79 61.0714 830.79 49.9314 Q830.79 38.7509 836.299 32.4315 Q841.849 26.1121 851.611 26.1121 Z" fill="#000000" fill-rule="nonzero" fill-opacity="1"></path><path clip-path="url(#clip660)" d="M884.788 9.54393 L892.242 9.54393 L892.242 72.576 L884.788 72.576 L884.788 9.54393 Z" fill="#000000" fill-rule="nonzero" fill-opacity="1"></path><path clip-path="url(#clip660)" d="M907.068 54.671 L907.068 27.2059 L914.522 27.2059 L914.522 54.3874 Q914.522 60.8284 917.034 64.0691 Q919.545 67.2693 924.568 67.2693 Q930.604 67.2693 934.088 63.421 Q937.612 59.5726 937.612 52.9291 L937.612 27.2059 L945.066 27.2059 L945.066 72.576 L937.612 72.576 L937.612 65.6084 Q934.898 69.7404 931.293 71.7658 Q927.728 73.7508 922.988 73.7508 Q915.17 73.7508 911.119 68.8897 Q907.068 64.0286 907.068 54.671 M925.824 26.1121 L925.824 26.1121 Z" fill="#000000" fill-rule="nonzero" fill-opacity="1"></path><path clip-path="url(#clip660)" d="M967.791 14.324 L967.791 27.2059 L983.144 27.2059 L983.144 32.9987 L967.791 32.9987 L967.791 57.6282 Q967.791 63.1779 969.29 64.7578 Q970.83 66.3376 975.488 66.3376 L983.144 66.3376 L983.144 72.576 L975.488 72.576 Q966.86 72.576 963.578 69.3758 Q960.297 66.1351 960.297 57.6282 L960.297 32.9987 L954.828 32.9987 L954.828 27.2059 L960.297 27.2059 L960.297 14.324 L967.791 14.324 Z" fill="#000000" fill-rule="nonzero" fill-opacity="1"></path><path clip-path="url(#clip660)" d="M992.947 27.2059 L1000.4 27.2059 L1000.4 72.576 L992.947 72.576 L992.947 27.2059 M992.947 9.54393 L1000.4 9.54393 L1000.4 18.9825 L992.947 18.9825 L992.947 9.54393 Z" fill="#000000" fill-rule="nonzero" fill-opacity="1"></path><path clip-path="url(#clip660)" d="M1033.58 32.4315 Q1027.58 32.4315 1024.1 37.1306 Q1020.62 41.7891 1020.62 49.9314 Q1020.62 58.0738 1024.06 62.7728 Q1027.54 67.4314 1033.58 67.4314 Q1039.53 67.4314 1043.02 62.7323 Q1046.5 58.0333 1046.5 49.9314 Q1046.5 41.8701 1043.02 37.1711 Q1039.53 32.4315 1033.58 32.4315 M1033.58 26.1121 Q1043.3 26.1121 1048.85 32.4315 Q1054.4 38.7509 1054.4 49.9314 Q1054.4 61.0714 1048.85 67.4314 Q1043.3 73.7508 1033.58 73.7508 Q1023.82 73.7508 1018.27 67.4314 Q1012.76 61.0714 1012.76 49.9314 Q1012.76 38.7509 1018.27 32.4315 Q1023.82 26.1121 1033.58 26.1121 Z" fill="#000000" fill-rule="nonzero" fill-opacity="1"></path><path clip-path="url(#clip660)" d="M1104.47 45.1919 L1104.47 72.576 L1097.02 72.576 L1097.02 45.4349 Q1097.02 38.994 1094.5 35.7938 Q1091.99 32.5936 1086.97 32.5936 Q1080.93 32.5936 1077.45 36.4419 Q1073.97 40.2903 1073.97 46.9338 L1073.97 72.576 L1066.47 72.576 L1066.47 27.2059 L1073.97 27.2059 L1073.97 34.2544 Q1076.64 30.163 1080.24 28.1376 Q1083.89 26.1121 1088.63 26.1121 Q1096.45 26.1121 1100.46 30.9732 Q1104.47 35.7938 1104.47 45.1919 Z" fill="#000000" fill-rule="nonzero" fill-opacity="1"></path><path clip-path="url(#clip660)" d="M1126.38 12.096 L1126.38 34.5785 L1119.5 34.5785 L1119.5 12.096 L1126.38 12.096 Z" fill="#000000" fill-rule="nonzero" fill-opacity="1"></path><path clip-path="url(#clip660)" d="M1171.07 28.5427 L1171.07 35.5912 Q1167.91 33.9709 1164.5 33.1607 Q1161.1 32.3505 1157.45 32.3505 Q1151.9 32.3505 1149.11 34.0519 Q1146.36 35.7533 1146.36 39.156 Q1146.36 41.7486 1148.34 43.2475 Q1150.33 44.7058 1156.32 46.0426 L1158.87 46.6097 Q1166.81 48.3111 1170.13 51.4303 Q1173.5 54.509 1173.5 60.0587 Q1173.5 66.3781 1168.47 70.0644 Q1163.49 73.7508 1154.74 73.7508 Q1151.09 73.7508 1147.12 73.0216 Q1143.2 72.3329 1138.82 70.9151 L1138.82 63.2184 Q1142.95 65.3654 1146.96 66.4591 Q1150.97 67.5124 1154.9 67.5124 Q1160.17 67.5124 1163 65.73 Q1165.84 63.9071 1165.84 60.6258 Q1165.84 57.5877 1163.77 55.9673 Q1161.75 54.3469 1154.82 52.8481 L1152.23 52.2405 Q1145.3 50.7821 1142.22 47.7845 Q1139.14 44.7463 1139.14 39.4801 Q1139.14 33.0797 1143.68 29.5959 Q1148.22 26.1121 1156.56 26.1121 Q1160.7 26.1121 1164.34 26.7198 Q1167.99 27.3274 1171.07 28.5427 Z" fill="#000000" fill-rule="nonzero" fill-opacity="1"></path><path clip-path="url(#clip660)" d="M1207.4 27.2059 L1214.86 27.2059 L1224.17 62.6108 L1233.45 27.2059 L1242.24 27.2059 L1251.56 62.6108 L1260.83 27.2059 L1268.29 27.2059 L1256.42 72.576 L1247.63 72.576 L1237.87 35.3887 L1228.06 72.576 L1219.27 72.576 L1207.4 27.2059 Z" fill="#000000" fill-rule="nonzero" fill-opacity="1"></path><path clip-path="url(#clip660)" d="M1300.21 49.7694 Q1291.18 49.7694 1287.69 51.8354 Q1284.21 53.9013 1284.21 58.8839 Q1284.21 62.8538 1286.8 65.2034 Q1289.43 67.5124 1293.93 67.5124 Q1300.13 67.5124 1303.85 63.1374 Q1307.62 58.7219 1307.62 51.4303 L1307.62 49.7694 L1300.21 49.7694 M1315.08 46.6907 L1315.08 72.576 L1307.62 72.576 L1307.62 65.6895 Q1305.07 69.8214 1301.26 71.8063 Q1297.45 73.7508 1291.94 73.7508 Q1284.98 73.7508 1280.85 69.8619 Q1276.75 65.9325 1276.75 59.3701 Q1276.75 51.7138 1281.86 47.825 Q1287 43.9361 1297.17 43.9361 L1307.62 43.9361 L1307.62 43.2069 Q1307.62 38.0623 1304.22 35.2672 Q1300.86 32.4315 1294.74 32.4315 Q1290.85 32.4315 1287.16 33.3632 Q1283.48 34.295 1280.08 36.1584 L1280.08 29.2718 Q1284.17 27.692 1288.02 26.9223 Q1291.86 26.1121 1295.51 26.1121 Q1305.35 26.1121 1310.21 31.2163 Q1315.08 36.3204 1315.08 46.6907 Z" fill="#000000" fill-rule="nonzero" fill-opacity="1"></path><path clip-path="url(#clip660)" d="M1325.08 27.2059 L1332.98 27.2059 L1347.16 65.2844 L1361.34 27.2059 L1369.24 27.2059 L1352.22 72.576 L1342.09 72.576 L1325.08 27.2059 Z" fill="#000000" fill-rule="nonzero" fill-opacity="1"></path><path clip-path="url(#clip660)" d="M1418.33 48.0275 L1418.33 51.6733 L1384.06 51.6733 Q1384.55 59.3701 1388.68 63.421 Q1392.85 67.4314 1400.27 67.4314 Q1404.56 67.4314 1408.57 66.3781 Q1412.62 65.3249 1416.59 63.2184 L1416.59 70.267 Q1412.58 71.9684 1408.37 72.8596 Q1404.15 73.7508 1399.82 73.7508 Q1388.96 73.7508 1382.6 67.4314 Q1376.28 61.1119 1376.28 50.3365 Q1376.28 39.1965 1382.28 32.6746 Q1388.32 26.1121 1398.52 26.1121 Q1407.68 26.1121 1412.99 32.0264 Q1418.33 37.9003 1418.33 48.0275 M1410.88 45.84 Q1410.8 39.7232 1407.44 36.0774 Q1404.11 32.4315 1398.61 32.4315 Q1392.37 32.4315 1388.6 35.9558 Q1384.87 39.4801 1384.31 45.8805 L1410.88 45.84 Z" fill="#000000" fill-rule="nonzero" fill-opacity="1"></path><path clip-path="url(#clip660)" d="M1485.86 28.5427 L1485.86 35.5912 Q1482.7 33.9709 1479.3 33.1607 Q1475.9 32.3505 1472.25 32.3505 Q1466.7 32.3505 1463.91 34.0519 Q1461.15 35.7533 1461.15 39.156 Q1461.15 41.7486 1463.14 43.2475 Q1465.12 44.7058 1471.12 46.0426 L1473.67 46.6097 Q1481.61 48.3111 1484.93 51.4303 Q1488.29 54.509 1488.29 60.0587 Q1488.29 66.3781 1483.27 70.0644 Q1478.29 73.7508 1469.54 73.7508 Q1465.89 73.7508 1461.92 73.0216 Q1457.99 72.3329 1453.62 70.9151 L1453.62 63.2184 Q1457.75 65.3654 1461.76 66.4591 Q1465.77 67.5124 1469.7 67.5124 Q1474.96 67.5124 1477.8 65.73 Q1480.64 63.9071 1480.64 60.6258 Q1480.64 57.5877 1478.57 55.9673 Q1476.54 54.3469 1469.62 52.8481 L1467.02 52.2405 Q1460.1 50.7821 1457.02 47.7845 Q1453.94 44.7463 1453.94 39.4801 Q1453.94 33.0797 1458.48 29.5959 Q1463.01 26.1121 1471.36 26.1121 Q1475.49 26.1121 1479.14 26.7198 Q1482.78 27.3274 1485.86 28.5427 Z" fill="#000000" fill-rule="nonzero" fill-opacity="1"></path><path clip-path="url(#clip660)" d="M1507.53 14.324 L1507.53 27.2059 L1522.89 27.2059 L1522.89 32.9987 L1507.53 32.9987 L1507.53 57.6282 Q1507.53 63.1779 1509.03 64.7578 Q1510.57 66.3376 1515.23 66.3376 L1522.89 66.3376 L1522.89 72.576 L1515.23 72.576 Q1506.6 72.576 1503.32 69.3758 Q1500.04 66.1351 1500.04 57.6282 L1500.04 32.9987 L1494.57 32.9987 L1494.57 27.2059 L1500.04 27.2059 L1500.04 14.324 L1507.53 14.324 Z" fill="#000000" fill-rule="nonzero" fill-opacity="1"></path><path clip-path="url(#clip660)" d="M1558.98 34.1734 Q1557.72 33.4443 1556.23 33.1202 Q1554.77 32.7556 1552.99 32.7556 Q1546.67 32.7556 1543.26 36.8875 Q1539.9 40.9789 1539.9 48.6757 L1539.9 72.576 L1532.41 72.576 L1532.41 27.2059 L1539.9 27.2059 L1539.9 34.2544 Q1542.25 30.1225 1546.02 28.1376 Q1549.78 26.1121 1555.17 26.1121 Q1555.94 26.1121 1556.87 26.2337 Q1557.81 26.3147 1558.94 26.5172 L1558.98 34.1734 Z" fill="#000000" fill-rule="nonzero" fill-opacity="1"></path><path clip-path="url(#clip660)" d="M1566.03 54.671 L1566.03 27.2059 L1573.48 27.2059 L1573.48 54.3874 Q1573.48 60.8284 1575.99 64.0691 Q1578.51 67.2693 1583.53 67.2693 Q1589.56 67.2693 1593.05 63.421 Q1596.57 59.5726 1596.57 52.9291 L1596.57 27.2059 L1604.03 27.2059 L1604.03 72.576 L1596.57 72.576 L1596.57 65.6084 Q1593.86 69.7404 1590.25 71.7658 Q1586.69 73.7508 1581.95 73.7508 Q1574.13 73.7508 1570.08 68.8897 Q1566.03 64.0286 1566.03 54.671 M1584.78 26.1121 L1584.78 26.1121 Z" fill="#000000" fill-rule="nonzero" fill-opacity="1"></path><path clip-path="url(#clip660)" d="M1652.03 28.9478 L1652.03 35.9153 Q1648.87 34.1734 1645.67 33.3227 Q1642.51 32.4315 1639.27 32.4315 Q1632.02 32.4315 1628.01 37.0496 Q1624 41.6271 1624 49.9314 Q1624 58.2358 1628.01 62.8538 Q1632.02 67.4314 1639.27 67.4314 Q1642.51 67.4314 1645.67 66.5807 Q1648.87 65.6895 1652.03 63.9476 L1652.03 70.8341 Q1648.91 72.2924 1645.55 73.0216 Q1642.23 73.7508 1638.46 73.7508 Q1628.21 73.7508 1622.17 67.3098 Q1616.14 60.8689 1616.14 49.9314 Q1616.14 38.832 1622.21 32.472 Q1628.33 26.1121 1638.95 26.1121 Q1642.39 26.1121 1645.67 26.8413 Q1648.95 27.5299 1652.03 28.9478 Z" fill="#000000" fill-rule="nonzero" fill-opacity="1"></path><path clip-path="url(#clip660)" d="M1672.37 14.324 L1672.37 27.2059 L1687.72 27.2059 L1687.72 32.9987 L1672.37 32.9987 L1672.37 57.6282 Q1672.37 63.1779 1673.86 64.7578 Q1675.4 66.3376 1680.06 66.3376 L1687.72 66.3376 L1687.72 72.576 L1680.06 72.576 Q1671.43 72.576 1668.15 69.3758 Q1664.87 66.1351 1664.87 57.6282 L1664.87 32.9987 L1659.4 32.9987 L1659.4 27.2059 L1664.87 27.2059 L1664.87 14.324 L1672.37 14.324 Z" fill="#000000" fill-rule="nonzero" fill-opacity="1"></path><path clip-path="url(#clip660)" d="M1696.75 54.671 L1696.75 27.2059 L1704.21 27.2059 L1704.21 54.3874 Q1704.21 60.8284 1706.72 64.0691 Q1709.23 67.2693 1714.25 67.2693 Q1720.29 67.2693 1723.77 63.421 Q1727.3 59.5726 1727.3 52.9291 L1727.3 27.2059 L1734.75 27.2059 L1734.75 72.576 L1727.3 72.576 L1727.3 65.6084 Q1724.58 69.7404 1720.98 71.7658 Q1717.41 73.7508 1712.67 73.7508 Q1704.85 73.7508 1700.8 68.8897 Q1696.75 64.0286 1696.75 54.671 M1715.51 26.1121 L1715.51 26.1121 Z" fill="#000000" fill-rule="nonzero" fill-opacity="1"></path><path clip-path="url(#clip660)" d="M1776.39 34.1734 Q1775.14 33.4443 1773.64 33.1202 Q1772.18 32.7556 1770.4 32.7556 Q1764.08 32.7556 1760.67 36.8875 Q1757.31 40.9789 1757.31 48.6757 L1757.31 72.576 L1749.82 72.576 L1749.82 27.2059 L1757.31 27.2059 L1757.31 34.2544 Q1759.66 30.1225 1763.43 28.1376 Q1767.2 26.1121 1772.58 26.1121 Q1773.35 26.1121 1774.29 26.2337 Q1775.22 26.3147 1776.35 26.5172 L1776.39 34.1734 Z" fill="#000000" fill-rule="nonzero" fill-opacity="1"></path><path clip-path="url(#clip660)" d="M1821.2 48.0275 L1821.2 51.6733 L1786.92 51.6733 Q1787.41 59.3701 1791.54 63.421 Q1795.72 67.4314 1803.13 67.4314 Q1807.42 67.4314 1811.43 66.3781 Q1815.48 65.3249 1819.45 63.2184 L1819.45 70.267 Q1815.44 71.9684 1811.23 72.8596 Q1807.02 73.7508 1802.68 73.7508 Q1791.83 73.7508 1785.47 67.4314 Q1779.15 61.1119 1779.15 50.3365 Q1779.15 39.1965 1785.14 32.6746 Q1791.18 26.1121 1801.39 26.1121 Q1810.54 26.1121 1815.85 32.0264 Q1821.2 37.9003 1821.2 48.0275 M1813.74 45.84 Q1813.66 39.7232 1810.3 36.0774 Q1806.98 32.4315 1801.47 32.4315 Q1795.23 32.4315 1791.46 35.9558 Q1787.73 39.4801 1787.17 45.8805 L1813.74 45.84 Z" fill="#000000" fill-rule="nonzero" fill-opacity="1"></path><polyline clip-path="url(#clip662)" style="stroke:#009af9; stroke-linecap:round; stroke-linejoin:round; stroke-width:4; stroke-opacity:1; fill:none" points="1300.11,1386.4 1310.14,1374.01 1320.17,1361.63 1330.2,1349.24 1340.23,1336.85 1350.26,1324.47 1360.29,1312.08 1370.32,1299.7 1380.35,1287.31 1390.39,1274.93 1400.42,1262.54 1410.45,1250.16 1420.48,1237.77 1430.51,1225.39 1440.54,1213 1450.57,1200.62 1460.6,1188.23 1470.63,1175.85 1480.66,1163.46 1490.7,1151.08 1500.73,1138.69 1510.76,1126.31 1520.79,1113.92 1530.82,1101.54 1540.85,1089.15 1550.88,1076.76 1560.91,1064.38 1570.94,1051.99 1580.97,1039.61 1591.01,1027.22 1601.04,1014.84 1611.07,1002.45 1621.1,990.068 1631.13,977.683 1641.16,965.297 1651.19,952.912 1661.22,940.527 1671.25,928.142 1681.28,915.756 1691.31,903.371 1701.35,890.986 1711.38,878.601 1721.41,866.215 1731.44,853.83 1741.47,841.445 1751.5,829.06 1761.53,816.674 1771.56,804.289 1781.59,791.904 1791.62,779.519 1801.66,767.133 1811.69,754.748 1821.72,742.363 1831.75,729.978 1841.78,717.592 1851.81,705.207 1861.84,692.822 1871.87,680.437 1881.9,668.051 1891.93,655.666 1901.96,643.281 1912,630.896 1922.03,618.51 1932.06,606.125 1942.09,593.74 1952.12,581.355 1962.15,568.969 1972.18,556.584 1982.21,544.199 1992.24,531.814 2002.27,519.428 2012.31,507.043 2022.34,494.658 2032.37,482.273 2042.4,469.887 2052.43,457.502 2062.46,445.117 2072.49,432.732 2082.52,420.346 2092.55,407.961 2102.58,395.576 2112.61,383.191 2122.65,370.805 2132.68,358.42 2142.71,346.035 2152.74,333.65 2162.77,321.265 2172.8,308.879 2182.83,296.494 2192.86,284.109 2202.89,271.724 2212.92,259.338 2222.96,246.953 2232.99,234.568 2243.02,222.183 2253.05,209.797 2263.08,197.412 2273.11,185.027 2283.14,172.642 2293.17,160.256 "></polyline>
<polyline clip-path="url(#clip662)" style="stroke:#e26f46; stroke-linecap:round; stroke-linejoin:round; stroke-width:4; stroke-opacity:1; fill:none" points="1300.11,1386.4 1290.08,1374.01 1280.05,1361.63 1270.01,1349.24 1259.98,1336.85 1249.95,1324.47 1239.92,1312.08 1229.89,1299.7 1219.86,1287.31 1209.83,1274.93 1199.8,1262.54 1189.77,1250.16 1179.74,1237.77 1169.7,1225.39 1159.67,1213 1149.64,1200.62 1139.61,1188.23 1129.58,1175.85 1119.55,1163.46 1109.52,1151.08 1099.49,1138.69 1089.46,1126.31 1079.43,1113.92 1069.4,1101.54 1059.36,1089.15 1049.33,1076.76 1039.3,1064.38 1029.27,1051.99 1019.24,1039.61 1009.21,1027.22 999.179,1014.84 989.148,1002.45 979.117,990.068 969.086,977.683 959.055,965.297 949.024,952.912 938.993,940.527 928.962,928.142 918.931,915.756 908.9,903.371 898.869,890.986 888.838,878.601 878.807,866.215 868.776,853.83 858.745,841.445 848.714,829.06 838.683,816.674 828.652,804.289 818.621,791.904 808.59,779.519 798.559,767.133 788.529,754.748 778.498,742.363 768.467,729.978 758.436,717.592 748.405,705.207 738.374,692.822 728.343,680.437 718.312,668.051 708.281,655.666 698.25,643.281 688.219,630.896 678.188,618.51 668.157,606.125 658.126,593.74 648.095,581.355 638.064,568.969 628.033,556.584 618.002,544.199 607.971,531.814 597.94,519.428 587.909,507.043 577.878,494.658 567.847,482.273 557.817,469.887 547.786,457.502 537.755,445.117 527.724,432.732 517.693,420.346 507.662,407.961 497.631,395.576 487.6,383.191 477.569,370.805 467.538,358.42 457.507,346.035 447.476,333.65 437.445,321.265 427.414,308.879 417.383,296.494 407.352,284.109 397.321,271.724 387.29,259.338 377.259,246.953 367.228,234.568 357.197,222.183 347.166,209.797 337.135,197.412 327.105,185.027 317.074,172.642 307.043,160.256 "></polyline>
<polyline clip-path="url(#clip662)" style="stroke:#3da44d; stroke-linecap:round; stroke-linejoin:round; stroke-width:4; stroke-opacity:1; fill:none" points="1300.11,1386.4 1399.41,773.326 1498.72,160.256 "></polyline>
<path clip-path="url(#clip660)" d="M1874.18 1379.86 L2282.58 1379.86 L2282.58 1172.5 L1874.18 1172.5  Z" fill="#ffffff" fill-rule="evenodd" fill-opacity="1"></path>
<polyline clip-path="url(#clip660)" style="stroke:#000000; stroke-linecap:round; stroke-linejoin:round; stroke-width:4; stroke-opacity:1; fill:none" points="1874.18,1379.86 2282.58,1379.86 2282.58,1172.5 1874.18,1172.5 1874.18,1379.86 "></polyline>
<polyline clip-path="url(#clip660)" style="stroke:#009af9; stroke-linecap:round; stroke-linejoin:round; stroke-width:4; stroke-opacity:1; fill:none" points="1897.58,1224.34 2037.93,1224.34 "></polyline>
<path clip-path="url(#clip660)" d="M2085.05 1233.9 Q2085.05 1234.35 2084.53 1234.39 L2083.48 1234.39 Q2082.4 1234.39 2081.93 1234.23 Q2081.47 1234.07 2080.93 1233.32 Q2080.6 1232.85 2079.78 1230.67 Q2078.98 1228.47 2077.81 1225.14 Q2076.66 1221.82 2075.89 1219.85 L2064.34 1233.48 Q2063.55 1234.49 2062.75 1234.49 Q2062.17 1234.49 2061.74 1234.09 Q2061.32 1233.69 2061.32 1233.08 Q2061.32 1232.64 2061.49 1232.38 Q2061.67 1232.12 2062.17 1231.61 L2075.42 1218.47 L2070.76 1205.42 Q2069.87 1203.01 2069.36 1202.4 Q2068.86 1201.79 2067.65 1201.58 Q2067.2 1201.46 2067.2 1201.09 Q2067.2 1200.57 2068.07 1200.57 Q2072.71 1200.57 2073.92 1203.97 L2083.71 1231.26 Q2084.25 1232.83 2084.81 1233.48 Q2085.05 1233.79 2085.05 1233.9 Z" fill="#000000" fill-rule="nonzero" fill-opacity="1"></path><path clip-path="url(#clip660)" d="M2089.93 1228.6 L2089.93 1227.55 Q2093.96 1227.55 2096.04 1225.41 Q2096.62 1225.41 2096.71 1225.54 Q2096.81 1225.67 2096.81 1226.28 L2096.81 1245.11 Q2096.81 1246.11 2097.3 1246.43 Q2097.8 1246.74 2099.94 1246.74 L2101.01 1246.74 L2101.01 1247.77 Q2099.83 1247.67 2095.57 1247.67 Q2091.3 1247.67 2090.14 1247.77 L2090.14 1246.74 L2091.21 1246.74 Q2093.32 1246.74 2093.83 1246.44 Q2094.34 1246.13 2094.34 1245.11 L2094.34 1227.72 Q2092.58 1228.6 2089.93 1228.6 Z" fill="#000000" fill-rule="nonzero" fill-opacity="1"></path><path clip-path="url(#clip660)" d="M2119.32 1226.57 Q2119.37 1225.99 2120.28 1225.99 L2149.68 1225.99 Q2151.06 1225.99 2151.08 1226.52 Q2151.08 1227.11 2149.77 1227.09 L2120.61 1227.09 Q2119.32 1227.11 2119.32 1226.57 M2119.32 1217.2 Q2119.32 1216.62 2120.33 1216.64 L2149.63 1216.64 Q2151.06 1216.64 2151.08 1217.2 Q2151.08 1217.74 2149.86 1217.74 L2120.28 1217.74 Q2119.32 1217.74 2119.32 1217.2 Z" fill="#000000" fill-rule="nonzero" fill-opacity="1"></path><path clip-path="url(#clip660)" d="M2169.57 1206.47 L2169.57 1204.98 Q2175.33 1204.98 2178.31 1201.91 Q2179.13 1201.91 2179.27 1202.09 Q2179.41 1202.28 2179.41 1203.15 L2179.41 1230.06 Q2179.41 1231.49 2180.11 1231.94 Q2180.82 1232.38 2183.88 1232.38 L2185.41 1232.38 L2185.41 1233.86 Q2183.72 1233.72 2177.63 1233.72 Q2171.54 1233.72 2169.88 1233.86 L2169.88 1232.38 L2171.4 1232.38 Q2174.42 1232.38 2175.15 1231.96 Q2175.87 1231.51 2175.87 1230.06 L2175.87 1205.21 Q2173.37 1206.47 2169.57 1206.47 Z" fill="#000000" fill-rule="nonzero" fill-opacity="1"></path><polyline clip-path="url(#clip660)" style="stroke:#e26f46; stroke-linecap:round; stroke-linejoin:round; stroke-width:4; stroke-opacity:1; fill:none" points="1897.58,1276.18 2037.93,1276.18 "></polyline>
<path clip-path="url(#clip660)" d="M2085.05 1285.74 Q2085.05 1286.19 2084.53 1286.23 L2083.48 1286.23 Q2082.4 1286.23 2081.93 1286.07 Q2081.47 1285.91 2080.93 1285.16 Q2080.6 1284.69 2079.78 1282.51 Q2078.98 1280.31 2077.81 1276.98 Q2076.66 1273.66 2075.89 1271.69 L2064.34 1285.32 Q2063.55 1286.33 2062.75 1286.33 Q2062.17 1286.33 2061.74 1285.93 Q2061.32 1285.53 2061.32 1284.92 Q2061.32 1284.48 2061.49 1284.22 Q2061.67 1283.96 2062.17 1283.45 L2075.42 1270.31 L2070.76 1257.26 Q2069.87 1254.85 2069.36 1254.24 Q2068.86 1253.63 2067.65 1253.42 Q2067.2 1253.3 2067.2 1252.93 Q2067.2 1252.41 2068.07 1252.41 Q2072.71 1252.41 2073.92 1255.81 L2083.71 1283.1 Q2084.25 1284.67 2084.81 1285.32 Q2085.05 1285.63 2085.05 1285.74 Z" fill="#000000" fill-rule="nonzero" fill-opacity="1"></path><path clip-path="url(#clip660)" d="M2089.93 1299.61 Q2089.93 1299 2089.98 1298.82 Q2090.04 1298.64 2090.3 1298.36 L2096.75 1291.18 Q2100.27 1287.21 2100.27 1283.76 Q2100.27 1281.51 2099.09 1279.9 Q2097.93 1278.3 2095.78 1278.3 Q2094.3 1278.3 2093.06 1279.2 Q2091.81 1280.1 2091.24 1281.71 Q2091.34 1281.67 2091.68 1281.67 Q2092.52 1281.67 2092.98 1282.2 Q2093.45 1282.72 2093.45 1283.43 Q2093.45 1284.33 2092.86 1284.77 Q2092.29 1285.2 2091.71 1285.2 Q2091.48 1285.2 2091.17 1285.15 Q2090.88 1285.1 2090.4 1284.64 Q2089.93 1284.17 2089.93 1283.33 Q2089.93 1280.98 2091.7 1279.12 Q2093.48 1277.25 2096.21 1277.25 Q2099.29 1277.25 2101.3 1279.08 Q2103.34 1280.9 2103.34 1283.76 Q2103.34 1284.76 2103.03 1285.67 Q2102.73 1286.58 2102.32 1287.28 Q2101.93 1287.99 2100.85 1289.12 Q2099.76 1290.25 2098.89 1291.05 Q2098.03 1291.85 2096.07 1293.56 L2092.52 1297.02 L2098.57 1297.02 Q2101.52 1297.02 2101.75 1296.76 Q2102.08 1296.28 2102.49 1293.77 L2103.34 1293.77 L2102.39 1299.61 L2089.93 1299.61 Z" fill="#000000" fill-rule="nonzero" fill-opacity="1"></path><path clip-path="url(#clip660)" d="M2121.63 1278.41 Q2121.68 1277.83 2122.59 1277.83 L2151.98 1277.83 Q2153.37 1277.83 2153.39 1278.36 Q2153.39 1278.95 2152.08 1278.93 L2122.92 1278.93 Q2121.63 1278.95 2121.63 1278.41 M2121.63 1269.04 Q2121.63 1268.46 2122.64 1268.48 L2151.94 1268.48 Q2153.37 1268.48 2153.39 1269.04 Q2153.39 1269.58 2152.17 1269.58 L2122.59 1269.58 Q2121.63 1269.58 2121.63 1269.04 Z" fill="#000000" fill-rule="nonzero" fill-opacity="1"></path><path clip-path="url(#clip660)" d="M2216.85 1273.02 Q2217.13 1273.31 2217.13 1273.7 Q2217.13 1274.1 2216.85 1274.38 Q2216.57 1274.66 2216.17 1274.66 L2186.15 1274.66 Q2185.75 1274.66 2185.47 1274.38 Q2185.19 1274.1 2185.19 1273.7 Q2185.19 1273.31 2185.47 1273.02 Q2185.75 1272.74 2186.15 1272.74 L2216.17 1272.74 Q2216.57 1272.74 2216.85 1273.02 Z" fill="#000000" fill-rule="nonzero" fill-opacity="1"></path><path clip-path="url(#clip660)" d="M2235.44 1258.31 L2235.44 1256.82 Q2241.2 1256.82 2244.17 1253.75 Q2244.99 1253.75 2245.13 1253.93 Q2245.27 1254.12 2245.27 1254.99 L2245.27 1281.9 Q2245.27 1283.33 2245.98 1283.78 Q2246.68 1284.22 2249.75 1284.22 L2251.27 1284.22 L2251.27 1285.7 Q2249.58 1285.56 2243.49 1285.56 Q2237.4 1285.56 2235.74 1285.7 L2235.74 1284.22 L2237.26 1284.22 Q2240.29 1284.22 2241.01 1283.8 Q2241.74 1283.35 2241.74 1281.9 L2241.74 1257.05 Q2239.23 1258.31 2235.44 1258.31 Z" fill="#000000" fill-rule="nonzero" fill-opacity="1"></path><polyline clip-path="url(#clip660)" style="stroke:#3da44d; stroke-linecap:round; stroke-linejoin:round; stroke-width:4; stroke-opacity:1; fill:none" points="1897.58,1328.02 2037.93,1328.02 "></polyline>
<path clip-path="url(#clip660)" d="M2085.05 1337.58 Q2085.05 1338.03 2084.53 1338.07 L2083.48 1338.07 Q2082.4 1338.07 2081.93 1337.91 Q2081.47 1337.75 2080.93 1337 Q2080.6 1336.53 2079.78 1334.35 Q2078.98 1332.15 2077.81 1328.82 Q2076.66 1325.5 2075.89 1323.53 L2064.34 1337.16 Q2063.55 1338.17 2062.75 1338.17 Q2062.17 1338.17 2061.74 1337.77 Q2061.32 1337.37 2061.32 1336.76 Q2061.32 1336.32 2061.49 1336.06 Q2061.67 1335.8 2062.17 1335.29 L2075.42 1322.15 L2070.76 1309.1 Q2069.87 1306.69 2069.36 1306.08 Q2068.86 1305.47 2067.65 1305.26 Q2067.2 1305.14 2067.2 1304.77 Q2067.2 1304.25 2068.07 1304.25 Q2072.71 1304.25 2073.92 1307.65 L2083.71 1334.94 Q2084.25 1336.51 2084.81 1337.16 Q2085.05 1337.47 2085.05 1337.58 Z" fill="#000000" fill-rule="nonzero" fill-opacity="1"></path><path clip-path="url(#clip660)" d="M2089.93 1351.45 Q2089.93 1350.84 2089.98 1350.66 Q2090.04 1350.48 2090.3 1350.2 L2096.75 1343.02 Q2100.27 1339.05 2100.27 1335.6 Q2100.27 1333.35 2099.09 1331.74 Q2097.93 1330.14 2095.78 1330.14 Q2094.3 1330.14 2093.06 1331.04 Q2091.81 1331.94 2091.24 1333.55 Q2091.34 1333.51 2091.68 1333.51 Q2092.52 1333.51 2092.98 1334.04 Q2093.45 1334.56 2093.45 1335.27 Q2093.45 1336.17 2092.86 1336.61 Q2092.29 1337.04 2091.71 1337.04 Q2091.48 1337.04 2091.17 1336.99 Q2090.88 1336.94 2090.4 1336.48 Q2089.93 1336.01 2089.93 1335.17 Q2089.93 1332.82 2091.7 1330.96 Q2093.48 1329.09 2096.21 1329.09 Q2099.29 1329.09 2101.3 1330.92 Q2103.34 1332.74 2103.34 1335.6 Q2103.34 1336.6 2103.03 1337.51 Q2102.73 1338.42 2102.32 1339.12 Q2101.93 1339.83 2100.85 1340.96 Q2099.76 1342.09 2098.89 1342.89 Q2098.03 1343.69 2096.07 1345.4 L2092.52 1348.86 L2098.57 1348.86 Q2101.52 1348.86 2101.75 1348.6 Q2102.08 1348.12 2102.49 1345.61 L2103.34 1345.61 L2102.39 1351.45 L2089.93 1351.45 Z" fill="#000000" fill-rule="nonzero" fill-opacity="1"></path><path clip-path="url(#clip660)" d="M2121.63 1330.25 Q2121.68 1329.67 2122.59 1329.67 L2151.98 1329.67 Q2153.37 1329.67 2153.39 1330.2 Q2153.39 1330.79 2152.08 1330.77 L2122.92 1330.77 Q2121.63 1330.79 2121.63 1330.25 M2121.63 1320.88 Q2121.63 1320.3 2122.64 1320.32 L2151.94 1320.32 Q2153.37 1320.32 2153.39 1320.88 Q2153.39 1321.42 2152.17 1321.42 L2122.59 1321.42 Q2121.63 1321.42 2121.63 1320.88 Z" fill="#000000" fill-rule="nonzero" fill-opacity="1"></path><path clip-path="url(#clip660)" d="M2171.88 1329.81 Q2171.88 1328.38 2172.65 1327.84 Q2173.43 1327.28 2174.25 1327.28 Q2175.35 1327.28 2175.98 1327.98 Q2176.64 1328.66 2176.64 1329.62 Q2176.64 1330.58 2175.98 1331.28 Q2175.35 1331.96 2174.25 1331.96 Q2173.71 1331.96 2173.43 1331.87 Q2174.06 1334.07 2175.98 1335.66 Q2177.92 1337.25 2180.48 1337.25 Q2183.69 1337.25 2185.61 1334.14 Q2186.75 1332.13 2186.75 1327.56 Q2186.75 1323.53 2185.89 1321.51 Q2184.55 1318.45 2181.81 1318.45 Q2177.92 1318.45 2175.63 1321.8 Q2175.35 1322.22 2175.02 1322.24 Q2174.55 1322.24 2174.43 1321.98 Q2174.34 1321.7 2174.34 1320.98 L2174.34 1306.78 Q2174.34 1305.63 2174.81 1305.63 Q2175 1305.63 2175.39 1305.77 Q2178.42 1307.11 2181.76 1307.13 Q2185.21 1307.13 2188.3 1305.73 Q2188.53 1305.59 2188.67 1305.59 Q2189.14 1305.59 2189.17 1306.13 Q2189.17 1306.31 2188.77 1306.88 Q2188.39 1307.41 2187.57 1308.14 Q2186.75 1308.84 2185.7 1309.52 Q2184.65 1310.2 2183.1 1310.67 Q2181.58 1311.12 2179.89 1311.12 Q2177.88 1311.12 2175.82 1310.48 L2175.82 1319.83 Q2178.3 1317.39 2181.91 1317.39 Q2185.75 1317.39 2188.39 1320.48 Q2191.04 1323.58 2191.04 1327.89 Q2191.04 1332.41 2187.9 1335.5 Q2184.79 1338.59 2180.57 1338.59 Q2176.73 1338.59 2174.29 1335.85 Q2171.88 1333.11 2171.88 1329.81 Z" fill="#000000" fill-rule="nonzero" fill-opacity="1"></path></svg>